<?xml version="1.0" encoding="UTF-8"?>
<svg xmlns="http://www.w3.org/2000/svg" xmlns:xlink="http://www.w3.org/1999/xlink" viewBox="0 0 20 20" width="20px" height="20px">
<g id="surface74231785">
<rect x="0" y="0" width="20" height="20" style="fill:rgb(0%,0%,0%);fill-opacity:1;stroke:none;"/>
<path style=" stroke:none;fill-rule:nonzero;fill:rgb(100%,100%,100%);fill-opacity:1;" d="M 17.988281 3.992188 C 17.8125 4 17.648438 4.070312 17.527344 4.195312 L 7.332031 14.390625 L 3.136719 10.195312 C 2.972656 10.019531 2.722656 9.949219 2.488281 10.011719 C 2.253906 10.074219 2.074219 10.253906 2.011719 10.488281 C 1.949219 10.722656 2.019531 10.972656 2.195312 11.136719 L 6.863281 15.804688 C 7.121094 16.066406 7.542969 16.066406 7.804688 15.804688 L 18.472656 5.136719 C 18.667969 4.945312 18.726562 4.652344 18.621094 4.398438 C 18.511719 4.148438 18.261719 3.984375 17.988281 3.992188 Z M 17.988281 3.992188 "/>
</g>
</svg>
