<?xml version="1.0" standalone="no"?>
<!DOCTYPE svg PUBLIC "-//W3C//DTD SVG 20010904//EN"
 "http://www.w3.org/TR/2001/REC-SVG-20010904/DTD/svg10.dtd">
<svg version="1.0" xmlns="http://www.w3.org/2000/svg"
 width="569.000000pt" height="88.000000pt" viewBox="0 0 569.000000 88.000000"
 preserveAspectRatio="xMidYMid meet">

<g transform="translate(0.000000,88.000000) scale(0.100000,-0.100000)"
fill="#000000" stroke="none">
<path d="M71 854 c-29 -37 -61 -146 -61 -207 l0 -51 33 36 c40 43 93 60 180
56 l62 -3 1 -83 c1 -92 0 -94 -73 -122 -56 -21 -64 -35 -27 -44 27 -7 83 -42
95 -59 4 -5 7 -48 8 -95 2 -76 5 -93 29 -132 15 -25 57 -67 92 -94 l65 -49 3
343 2 342 93 -4 c50 -3 100 -8 109 -12 14 -6 20 4 38 65 12 39 24 87 27 106
l6 33 -331 0 -331 0 -20 -26z m527 -12 c9 -6 5 -12 -15 -21 -34 -16 -240 -16
-259 -1 -12 11 -102 8 -121 -3 -5 -3 -30 -9 -56 -12 -45 -6 -47 -6 -45 19 l2
25 241 0 c132 1 246 -3 253 -7z"/>
<path d="M4486 797 c-34 -72 -66 -196 -66 -259 l0 -33 21 35 c56 94 143 150
233 150 43 0 61 -5 82 -23 46 -40 24 -80 -131 -232 -102 -100 -138 -143 -158
-185 -28 -62 -47 -142 -47 -200 l0 -40 216 0 c306 0 300 -4 338 217 l5 32 -51
-32 c-48 -30 -58 -32 -159 -35 -65 -3 -109 0 -109 5 0 28 88 138 169 212 125
113 155 179 131 286 -15 66 -49 108 -114 140 -72 35 -147 42 -220 21 -53 -16
-60 -16 -82 -2 -23 16 -24 15 -58 -57z m319 42 c25 -7 58 -29 87 -58 37 -38
47 -55 53 -95 14 -92 -9 -131 -144 -238 -75 -59 -128 -125 -157 -194 -23 -55
-25 -56 -19 -19 4 22 10 42 13 45 12 9 42 71 32 65 -6 -3 -10 0 -10 7 0 10 -2
10 -9 -1 -5 -8 -7 -19 -5 -26 3 -6 -10 -27 -28 -45 -26 -28 -32 -42 -31 -73 1
-21 7 -45 13 -52 17 -21 -24 -38 -76 -32 -24 2 -44 1 -46 -4 -2 -5 -3 17 -2
48 0 56 20 110 50 140 18 18 29 16 14 -2 -7 -9 -10 -19 -6 -22 4 -4 12 -1 17
7 8 11 9 7 5 -15 -5 -27 -4 -28 6 -8 8 17 7 27 -5 46 -14 22 -13 25 37 71 128
121 166 162 186 207 20 42 21 52 10 78 -19 46 -56 66 -125 65 -69 0 -121 -23
-180 -79 l-38 -35 7 42 c4 22 19 71 34 107 27 65 28 66 63 63 19 -2 46 1 59 7
34 13 146 13 195 0z m-155 -669 c0 -5 -9 -6 -20 -3 -11 3 -17 9 -15 14 7 10
35 1 35 -11z m-183 -22 c-3 -7 -5 -2 -5 12 0 14 2 19 5 13 2 -7 2 -19 0 -25z
m321 15 c-15 -2 -42 -2 -60 0 -18 2 -6 4 27 4 33 0 48 -2 33 -4z m112 -37 c0
-2 -8 -10 -17 -17 -16 -13 -17 -12 -4 4 13 16 21 21 21 13z m-370 -42 c0 -2
-16 -4 -35 -4 -19 0 -35 4 -35 8 0 4 16 6 35 4 19 -2 35 -6 35 -8z m310 -9
c-14 -8 -29 -14 -35 -14 -5 0 1 6 15 14 14 8 30 14 35 14 6 0 -1 -6 -15 -14z
m-87 -12 c-7 -2 -19 -2 -25 0 -7 3 -2 5 12 5 14 0 19 -2 13 -5z"/>
<path d="M4525 820 c-3 -5 -1 -10 4 -10 6 0 11 5 11 10 0 6 -2 10 -4 10 -3 0
-8 -4 -11 -10z"/>
<path d="M4857 570 c-11 -10 -14 -21 -8 -24 12 -8 43 22 36 35 -8 11 -6 12
-28 -11z"/>
<path d="M4780 543 c14 -7 13 -24 -2 -20 -7 1 -13 -8 -14 -20 -1 -12 3 -20 8
-17 5 3 7 13 3 22 -5 13 -1 12 13 -3 17 -18 17 -21 3 -32 -9 -6 -20 -9 -25 -6
-10 7 -27 -18 -20 -29 3 -4 20 4 39 19 27 22 32 30 22 41 -6 8 -12 22 -12 30
0 8 -6 16 -13 18 -7 1 -8 0 -2 -3z"/>
<path d="M4826 507 c3 -10 9 -15 12 -12 3 3 0 11 -7 18 -10 9 -11 8 -5 -6z"/>
<path d="M4705 460 c-4 -6 -11 -7 -17 -4 -7 4 -8 2 -4 -5 6 -8 12 -9 20 -2 7
6 15 8 18 5 3 -3 9 -1 13 5 3 6 -1 11 -9 11 -8 0 -18 -5 -21 -10z"/>
<path d="M4704 416 c3 -25 12 -28 27 -9 7 10 9 15 5 11 -5 -4 -15 -3 -22 3 -9
7 -12 6 -10 -5z"/>
<path d="M4636 411 c-4 -5 3 -7 14 -4 23 6 26 13 6 13 -8 0 -17 -4 -20 -9z"/>
<path d="M4600 386 c0 -2 7 -6 15 -10 8 -3 15 -1 15 4 0 6 -7 10 -15 10 -8 0
-15 -2 -15 -4z"/>
<path d="M4587 346 c-17 -13 -17 -14 0 -20 10 -4 14 -4 10 0 -4 4 -2 13 4 21
14 17 9 16 -14 -1z"/>
<path d="M4520 260 c6 -11 13 -20 16 -20 2 0 0 9 -6 20 -6 11 -13 20 -16 20
-2 0 0 -9 6 -20z"/>
<path d="M4505 140 c-3 -5 -1 -10 4 -10 6 0 11 5 11 10 0 6 -2 10 -4 10 -3 0
-8 -4 -11 -10z"/>
<path d="M5243 853 c-91 -32 -187 -149 -232 -281 -34 -101 -36 -141 -11 -223
47 -156 120 -258 218 -306 185 -91 379 47 451 320 20 76 20 78 1 151 -66 260
-247 403 -427 339z m192 -27 c93 -43 180 -166 216 -305 13 -51 6 -85 -17 -87
-19 -2 -44 -17 -44 -27 0 -5 10 -2 21 9 22 19 22 19 16 -6 -3 -14 -9 -46 -12
-72 -4 -26 -11 -45 -16 -42 -5 3 -18 0 -30 -7 -17 -9 -24 -8 -31 2 -6 9 -7 2
-3 -21 7 -34 6 -35 -10 -13 -11 16 -13 28 -7 40 6 11 6 26 1 38 -8 18 -9 17
-5 -3 3 -13 2 -21 -2 -17 -3 3 -7 54 -7 113 -1 198 -68 312 -183 312 -48 0
-108 -48 -133 -104 -24 -57 -43 -182 -36 -238 3 -21 2 -38 -3 -38 -12 0 -21
30 -13 42 3 7 1 8 -5 4 -9 -5 -10 6 -5 41 l6 48 -24 -18 c-24 -17 -35 -23 -63
-31 -15 -5 -11 -52 5 -62 5 -3 9 -19 9 -35 0 -17 7 -44 16 -61 13 -24 18 -28
26 -17 7 10 7 7 3 -9 -5 -17 2 -32 28 -61 19 -21 38 -45 43 -54 5 -8 29 -27
54 -41 25 -14 39 -26 32 -26 -22 0 -98 57 -137 102 -40 47 -70 108 -90 180 -7
25 -19 56 -27 67 -14 19 -13 29 2 84 43 154 119 265 214 312 66 33 142 34 211
1z m-43 -152 c56 -29 91 -121 90 -239 0 -211 -145 -319 -254 -190 -22 26 -45
96 -54 161 -12 96 32 230 89 266 44 29 74 30 129 2z m-186 -435 c8 -8 14 -19
14 -24 0 -14 -36 39 -49 73 -8 17 -19 32 -25 32 -6 0 -4 4 4 10 11 7 17 0 28
-33 8 -23 20 -49 28 -58z m356 -36 c-20 -28 -55 -61 -102 -98 -14 -11 7 13 45
52 39 40 71 73 73 73 2 0 -6 -12 -16 -27z m-122 3 c0 -2 -8 -10 -17 -17 -16
-13 -17 -12 -4 4 13 16 21 21 21 13z m-40 -30 c0 -2 -7 -7 -16 -10 -8 -3 -12
-2 -9 4 6 10 25 14 25 6z m-43 -12 c-3 -3 -12 -4 -19 -1 -8 3 -5 6 6 6 11 1
17 -2 13 -5z m-34 -91 c-7 -2 -21 -2 -30 0 -10 3 -4 5 12 5 17 0 24 -2 18 -5z
m64 1 c-3 -3 -12 -4 -19 -1 -8 3 -5 6 6 6 11 1 17 -2 13 -5z"/>
<path d="M5090 570 c-13 -8 -12 -10 3 -10 9 0 17 5 17 10 0 12 -1 12 -20 0z"/>
<path d="M5063 525 c-30 -29 -29 -45 2 -45 22 0 25 4 25 35 0 19 -1 35 -2 34
-2 -1 -13 -11 -25 -24z"/>
<path d="M5564 369 c-9 -10 -13 -23 -9 -29 4 -7 1 -16 -6 -21 -10 -6 -8 -9 9
-9 13 0 20 4 17 10 -3 5 3 15 15 22 23 15 27 45 5 45 -8 0 -22 -8 -31 -18z"/>
<path d="M5283 533 l-43 -24 0 -67 0 -67 46 -28 46 -28 46 29 47 29 3 64 3 65
-49 27 c-28 15 -51 27 -53 26 -2 -1 -23 -12 -46 -26z m85 -10 c15 -9 28 -18
30 -19 5 -3 -62 -104 -68 -104 -3 0 -14 16 -24 35 -20 37 -31 43 -39 23 -3 -7
-4 0 -3 15 1 28 38 66 64 67 7 0 25 -8 40 -17z"/>
<path d="M3881 521 c-75 -225 -98 -285 -122 -308 -15 -15 -29 -36 -29 -45 0
-16 11 -18 100 -18 81 0 102 3 106 15 4 8 1 22 -5 29 -9 11 0 51 41 180 29 91
55 166 58 166 3 0 20 -42 37 -92 17 -51 35 -101 38 -110 10 -26 -21 -23 -78 6
-53 26 -56 23 -35 -47 17 -57 82 -122 135 -136 53 -14 285 -10 290 5 2 6 -17
25 -41 42 -33 24 -54 51 -80 104 -20 39 -36 76 -36 83 0 7 19 19 42 27 23 7
43 18 45 23 1 6 -27 24 -65 41 l-67 30 -38 117 -38 117 -55 0 c-45 0 -59 4
-80 25 -14 14 -26 25 -27 25 -2 0 -45 -126 -96 -279z m129 220 c0 -6 18 -13
40 -18 l40 -8 -50 -28 c-35 -20 -48 -24 -44 -13 3 9 3 16 0 16 -4 0 -16 -21
-27 -46 -24 -58 -34 -53 -15 7 8 24 17 56 20 72 6 25 36 40 36 18z m82 -54
c-7 -7 -18 -29 -26 -48 l-14 -34 -8 29 c-6 24 -3 33 16 48 26 21 48 25 32 5z
m131 -220 c-10 -6 -21 -15 -24 -20 -9 -12 -22 30 -14 43 4 6 15 5 31 -2 23
-11 23 -12 7 -21z m-32 -184 c9 -9 7 -11 -10 -6 -11 3 -21 1 -21 -5 0 -6 -13
-7 -36 -2 -58 13 -57 25 1 25 30 0 60 -6 66 -12z"/>
<path d="M902 767 c-12 -13 -47 -31 -79 -41 -111 -35 -213 -169 -213 -281 0
-62 33 -134 86 -192 42 -46 123 -93 160 -93 14 0 32 -12 46 -30 l22 -30 30 28
c17 16 51 34 76 41 86 25 149 84 196 184 29 63 30 110 5 177 -37 98 -122 177
-216 202 -27 7 -52 22 -60 35 -19 29 -26 29 -53 0z m39 -41 c6 3 15 1 22 -4 7
-5 26 -12 42 -16 17 -4 38 -15 48 -23 9 -9 17 -13 17 -9 0 4 9 2 20 -4 11 -6
17 -16 14 -22 -4 -6 -3 -8 3 -5 6 4 16 0 23 -8 11 -13 10 -15 -6 -12 -26 5
-54 16 -84 32 -14 7 -43 16 -65 21 -22 4 -43 12 -47 18 -5 7 -8 4 -8 -6 0 -10
-5 -18 -11 -18 -5 0 -7 -5 -3 -11 4 -8 0 -7 -15 1 -17 9 -28 8 -53 -4 -46 -23
-57 -19 -23 9 35 29 28 32 -18 7 -19 -10 -32 -23 -30 -29 5 -15 -16 -28 -28
-16 -14 14 20 40 97 73 38 16 74 36 79 45 9 14 10 13 13 -5 2 -11 8 -18 13
-14z m96 -205 c0 -14 9 -31 19 -38 10 -7 14 -13 8 -13 -5 0 -2 -5 6 -10 12 -8
10 -10 -9 -10 -24 0 -24 0 -5 -15 10 -8 15 -15 9 -14 -31 4 -36 -2 -14 -22 13
-11 19 -18 12 -15 -6 3 -22 -7 -36 -23 -14 -17 -28 -27 -32 -23 -3 4 -11 -1
-16 -11 -12 -20 -49 -23 -49 -4 0 7 9 41 21 75 20 61 20 120 -1 107 -6 -4 -14
4 -19 17 -6 13 -10 17 -10 10 -1 -9 -8 -11 -21 -7 -21 7 -29 -10 -7 -18 6 -2
9 -8 5 -12 -9 -10 -28 3 -28 20 0 21 29 45 45 38 9 -3 21 0 29 6 7 6 22 8 32
4 17 -6 18 -5 5 11 -11 13 -6 11 20 -5 22 -15 35 -32 36 -48z m-202 9 c-11 -5
-15 -9 -10 -10 6 0 2 -5 -7 -11 -12 -7 -24 -7 -35 0 -16 9 -16 10 4 11 12 0
25 5 28 10 3 6 14 10 23 9 14 0 13 -2 -3 -9z m228 -25 c-3 -9 -8 -14 -10 -11
-3 3 -2 9 2 15 9 16 15 13 8 -4z m-189 -20 c19 -14 18 -15 -10 -15 -37 0 -43
-5 -37 -31 4 -13 14 -19 37 -20 21 0 26 -3 14 -7 -14 -6 -15 -10 -3 -25 10
-13 14 -15 18 -5 3 8 9 1 16 -16 13 -31 8 -56 -9 -56 -6 0 -13 6 -16 14 -3 8
-15 11 -31 8 -22 -4 -25 -2 -20 12 4 10 3 15 -3 11 -6 -3 -15 6 -21 22 -6 17
-7 29 -1 31 6 2 -2 15 -16 30 -23 23 -25 27 -9 30 9 2 17 8 17 14 0 6 9 8 20
5 11 -3 18 -1 14 4 -8 14 19 10 40 -6z"/>
<path d="M2785 733 c-32 -12 -50 -13 -88 -4 -67 15 -115 13 -165 -8 -89 -36
-156 -113 -189 -218 -14 -45 -15 -59 -4 -95 23 -76 40 -108 87 -158 76 -81
197 -111 320 -78 45 13 46 12 70 -17 l24 -30 0 133 0 132 -37 -41 c-48 -53
-81 -69 -141 -69 -53 0 -102 26 -130 67 -14 23 -14 23 40 23 30 0 59 -5 65
-11 9 -9 21 -4 49 20 20 18 52 40 70 49 19 8 34 19 34 22 0 4 -31 26 -70 48
-59 36 -73 40 -95 32 -15 -6 -40 -10 -56 -10 -27 0 -28 2 -17 21 19 30 81 59
129 59 45 0 122 -38 133 -65 3 -8 10 -15 16 -15 6 0 10 43 10 115 0 63 -3 114
-7 114 -5 -1 -26 -8 -48 -16z m-91 -35 c34 -9 54 -9 81 -1 35 11 36 11 21 -6
-21 -23 -88 -33 -140 -21 -37 8 -116 -12 -86 -22 15 -5 5 -28 -11 -28 -6 0 -7
5 -3 11 4 8 -1 9 -17 4 -20 -5 -17 1 18 34 46 45 65 48 137 29z m-192 -56 c5
-17 -7 -20 -42 -13 -4 1 30 31 36 31 1 0 4 -8 6 -18z m-18 -131 c17 -19 17
-19 -2 -14 -12 3 -23 11 -26 19 -8 20 8 17 28 -5z"/>
<path d="M1240 729 c0 -6 9 -22 20 -36 18 -24 20 -41 20 -221 0 -186 -1 -197
-21 -219 l-22 -22 29 -11 c79 -29 135 -53 140 -61 19 -32 24 12 24 216 0 244
-1 239 54 213 14 -6 33 -22 42 -35 14 -23 14 -26 -3 -45 -10 -12 -33 -27 -50
-35 -18 -7 -33 -16 -33 -19 0 -4 13 -21 29 -40 33 -37 51 -89 51 -145 0 -21 7
-42 16 -50 18 -15 49 -73 57 -110 10 -39 86 -69 174 -69 81 0 113 8 113 25 0
8 -10 17 -22 21 -35 11 -118 95 -144 145 -12 26 -28 68 -35 95 -6 27 -18 60
-26 72 -13 22 -13 25 5 38 11 7 27 31 35 53 15 36 15 44 1 84 -19 56 -75 122
-125 147 -33 17 -59 20 -184 20 -98 0 -145 -4 -145 -11z m150 -29 c-20 -13
-33 -13 -25 0 3 6 14 10 23 10 15 0 15 -2 2 -10z m172 -16 c16 -8 27 -18 24
-21 -8 -8 -136 18 -136 27 0 5 -8 11 -17 14 -10 3 8 3 40 0 32 -2 72 -11 89
-20z m-224 -36 c2 -9 -3 -18 -10 -20 -8 -4 -14 3 -14 19 -2 26 19 27 24 1z
m39 -45 c-3 -10 -5 -4 -5 12 0 17 2 24 5 18 2 -7 2 -21 0 -30z"/>
<path d="M1710 730 c0 -6 7 -22 16 -35 14 -21 16 -51 13 -185 -3 -123 -7 -163
-18 -169 -30 -19 17 -104 87 -158 71 -54 71 -53 74 120 l3 152 69 -140 68
-139 67 139 67 140 7 -94 c4 -52 7 -120 7 -153 0 -32 2 -58 5 -58 23 0 91 48
115 82 37 51 46 82 32 111 -6 12 -13 90 -16 172 -6 138 -5 153 14 183 11 18
20 35 20 37 0 3 -42 5 -93 5 l-94 0 -62 -130 c-34 -71 -64 -130 -66 -130 -3 0
-34 59 -70 130 l-65 130 -90 0 c-55 0 -90 -4 -90 -10z m93 -22 c3 -10 9 -10
26 0 38 22 51 16 38 -18 -10 -26 -13 -28 -27 -15 -9 8 -21 15 -27 15 -6 0 -16
7 -23 15 -8 9 -8 15 -2 15 6 0 12 -6 15 -12z m439 4 c15 -6 13 -10 -12 -24
-28 -16 -30 -16 -40 2 -5 10 -10 21 -10 24 0 8 41 6 62 -2z"/>
<path d="M2860 729 c0 -6 9 -22 20 -36 19 -24 20 -41 20 -248 0 -209 -1 -223
-20 -240 -11 -10 -20 -26 -20 -37 0 -16 10 -18 104 -18 58 0 108 4 111 10 3 5
-3 22 -15 38 -19 25 -20 39 -18 141 l3 114 69 -99 c38 -55 85 -116 104 -136
36 -38 122 -76 142 -63 6 4 10 99 10 264 0 245 1 259 20 276 40 36 26 45 -70
45 l-89 0 -3 -142 -3 -143 -95 142 -95 142 -87 1 c-57 0 -88 -4 -88 -11z m95
-19 c3 -5 -1 -10 -10 -10 -9 0 -13 5 -10 10 3 6 8 10 10 10 2 0 7 -4 10 -10z
m65 -15 c0 -23 -2 -24 -27 -12 -26 11 -26 12 -5 15 12 2 22 8 22 13 0 5 2 9 5
9 3 0 5 -11 5 -25z m270 21 c0 -11 -19 -15 -25 -6 -3 5 1 10 9 10 9 0 16 -2
16 -4z m37 -2 c-3 -3 -12 -4 -19 -1 -8 3 -5 6 6 6 11 1 17 -2 13 -5z"/>
<path d="M3425 702 c-18 -28 -27 -58 -32 -107 -3 -39 -2 -66 3 -63 82 39 109
49 132 46 l27 -3 2 -185 c1 -102 2 -197 2 -212 1 -35 8 -35 61 1 72 48 120
137 90 167 -7 7 -10 54 -8 120 l3 109 48 3 c33 2 57 -2 74 -13 13 -9 26 -15
28 -13 4 4 55 172 55 181 0 4 -103 7 -230 7 l-230 0 -25 -38z m413 8 c6 0 12
-5 12 -11 0 -5 -3 -8 -8 -5 -4 2 -27 1 -52 -4 -28 -5 -47 -5 -51 2 -4 6 -31 8
-65 5 -33 -3 -88 -6 -124 -8 -50 -2 -69 -7 -83 -22 -22 -26 -34 -14 -17 17 7
15 23 26 39 28 20 2 278 1 349 -2z m-291 -36 c-3 -3 -12 -4 -19 -1 -8 3 -5 6
6 6 11 1 17 -2 13 -5z"/>
</g>
</svg>
